<?xml version="1.0" encoding="UTF-8" standalone="no"?><svg xmlns="http://www.w3.org/2000/svg" xmlns:xlink="http://www.w3.org/1999/xlink" contentScriptType="application/ecmascript" contentStyleType="text/css" height="1638px" preserveAspectRatio="none" style="width:1629px;height:1638px;" version="1.1" viewBox="0 0 1629 1638" width="1629px" zoomAndPan="magnify"><defs><filter height="300%" id="fhcj2z8" width="300%" x="-1" y="-1"><feGaussianBlur result="blurOut" stdDeviation="2.0"/><feColorMatrix in="blurOut" result="blurOut2" type="matrix" values="0 0 0 0 0 0 0 0 0 0 0 0 0 0 0 0 0 0 .4 0"/><feOffset dx="4.0" dy="4.0" in="blurOut2" result="blurOut3"/><feBlend in="SourceGraphic" in2="blurOut3" mode="normal"/></filter></defs><g><rect fill="#ADD8E6" height="1633.2617" style="stroke: #A80036; stroke-width: 1.0;" width="167" x="4" y="4"/><text fill="#000000" font-family="sans-serif" font-size="13" font-weight="bold" lengthAdjust="spacingAndGlyphs" textLength="161" x="7" y="16.5684">node0 - Command Line</text><rect fill="#ADD8E6" height="1633.2617" style="stroke: #A80036; stroke-width: 1.0;" width="164" x="351.5" y="4"/><text fill="#000000" font-family="sans-serif" font-size="13" font-weight="bold" lengthAdjust="spacingAndGlyphs" textLength="158" x="354.5" y="16.5684">node0 - Docker Service</text><rect fill="#ADD8E6" height="1633.2617" style="stroke: #A80036; stroke-width: 1.0;" width="410" x="589.5" y="4"/><text fill="#000000" font-family="sans-serif" font-size="13" font-weight="bold" lengthAdjust="spacingAndGlyphs" textLength="170" x="709.5" y="16.5684">node0 - REX-Ray Service</text><rect fill="#ADD8E6" height="1633.2617" style="stroke: #A80036; stroke-width: 1.0;" width="196" x="1091" y="4"/><text fill="#000000" font-family="sans-serif" font-size="13" font-weight="bold" lengthAdjust="spacingAndGlyphs" textLength="190" x="1094" y="16.5684">node0 - libStorage Executor</text><rect fill="#90EE90" height="1633.2617" style="stroke: #A80036; stroke-width: 1.0;" width="176" x="1289" y="4"/><text fill="#000000" font-family="sans-serif" font-size="13" font-weight="bold" lengthAdjust="spacingAndGlyphs" textLength="170" x="1292" y="16.5684">node1 - REX-Ray Service</text><line style="stroke: #A80036; stroke-width: 1.0; stroke-dasharray: 5.0,5.0;" x1="87" x2="87" y1="58.7988" y2="1598.7734"/><line style="stroke: #A80036; stroke-width: 1.0; stroke-dasharray: 5.0,5.0;" x1="433.5" x2="433.5" y1="58.7988" y2="1598.7734"/><line style="stroke: #A80036; stroke-width: 1.0; stroke-dasharray: 5.0,5.0;" x1="652.5" x2="652.5" y1="58.7988" y2="1598.7734"/><line style="stroke: #A80036; stroke-width: 1.0; stroke-dasharray: 5.0,5.0;" x1="929.5" x2="929.5" y1="58.7988" y2="1598.7734"/><line style="stroke: #A80036; stroke-width: 1.0; stroke-dasharray: 5.0,5.0;" x1="1188.5" x2="1188.5" y1="58.7988" y2="1598.7734"/><line style="stroke: #A80036; stroke-width: 1.0; stroke-dasharray: 5.0,5.0;" x1="1377" x2="1377" y1="58.7988" y2="1598.7734"/><rect fill="#FEFECE" filter="url(#fhcj2z8)" height="30.4883" style="stroke: #A80036; stroke-width: 1.5;" width="87" x="42" y="23.3105"/><text fill="#000000" font-family="sans-serif" font-size="14" lengthAdjust="spacingAndGlyphs" textLength="73" x="49" y="43.8457">Docker CLI</text><rect fill="#FEFECE" filter="url(#fhcj2z8)" height="30.4883" style="stroke: #A80036; stroke-width: 1.5;" width="87" x="42" y="1597.7734"/><text fill="#000000" font-family="sans-serif" font-size="14" lengthAdjust="spacingAndGlyphs" textLength="73" x="49" y="1618.3086">Docker CLI</text><rect fill="#FEFECE" filter="url(#fhcj2z8)" height="30.4883" style="stroke: #A80036; stroke-width: 1.5;" width="88" x="387.5" y="23.3105"/><text fill="#000000" font-family="sans-serif" font-size="14" lengthAdjust="spacingAndGlyphs" textLength="74" x="394.5" y="43.8457">Docker API</text><rect fill="#FEFECE" filter="url(#fhcj2z8)" height="30.4883" style="stroke: #A80036; stroke-width: 1.5;" width="88" x="387.5" y="1597.7734"/><text fill="#000000" font-family="sans-serif" font-size="14" lengthAdjust="spacingAndGlyphs" textLength="74" x="394.5" y="1618.3086">Docker API</text><rect fill="#FEFECE" filter="url(#fhcj2z8)" height="30.4883" style="stroke: #A80036; stroke-width: 1.5;" width="114" x="593.5" y="23.3105"/><text fill="#000000" font-family="sans-serif" font-size="14" lengthAdjust="spacingAndGlyphs" textLength="100" x="600.5" y="43.8457">scaleio01.sock</text><rect fill="#FEFECE" filter="url(#fhcj2z8)" height="30.4883" style="stroke: #A80036; stroke-width: 1.5;" width="114" x="593.5" y="1597.7734"/><text fill="#000000" font-family="sans-serif" font-size="14" lengthAdjust="spacingAndGlyphs" textLength="100" x="600.5" y="1618.3086">scaleio01.sock</text><rect fill="#FEFECE" filter="url(#fhcj2z8)" height="30.4883" style="stroke: #A80036; stroke-width: 1.5;" width="128" x="863.5" y="23.3105"/><text fill="#000000" font-family="sans-serif" font-size="14" lengthAdjust="spacingAndGlyphs" textLength="114" x="870.5" y="43.8457">libStorage Client</text><rect fill="#FEFECE" filter="url(#fhcj2z8)" height="30.4883" style="stroke: #A80036; stroke-width: 1.5;" width="128" x="863.5" y="1597.7734"/><text fill="#000000" font-family="sans-serif" font-size="14" lengthAdjust="spacingAndGlyphs" textLength="114" x="870.5" y="1618.3086">libStorage Client</text><rect fill="#FEFECE" filter="url(#fhcj2z8)" height="30.4883" style="stroke: #A80036; stroke-width: 1.5;" width="77" x="1148.5" y="23.3105"/><text fill="#000000" font-family="sans-serif" font-size="14" lengthAdjust="spacingAndGlyphs" textLength="63" x="1155.5" y="43.8457">lsx-linux</text><rect fill="#FEFECE" filter="url(#fhcj2z8)" height="30.4883" style="stroke: #A80036; stroke-width: 1.5;" width="77" x="1148.5" y="1597.7734"/><text fill="#000000" font-family="sans-serif" font-size="14" lengthAdjust="spacingAndGlyphs" textLength="63" x="1155.5" y="1618.3086">lsx-linux</text><rect fill="#FEFECE" filter="url(#fhcj2z8)" height="30.4883" style="stroke: #A80036; stroke-width: 1.5;" width="110" x="1320" y="23.3105"/><text fill="#000000" font-family="sans-serif" font-size="14" lengthAdjust="spacingAndGlyphs" textLength="96" x="1327" y="43.8457">libStorage API</text><rect fill="#FEFECE" filter="url(#fhcj2z8)" height="30.4883" style="stroke: #A80036; stroke-width: 1.5;" width="110" x="1320" y="1597.7734"/><text fill="#000000" font-family="sans-serif" font-size="14" lengthAdjust="spacingAndGlyphs" textLength="96" x="1327" y="1618.3086">libStorage API</text><polygon fill="#A80036" points="421.5,85.7988,431.5,89.7988,421.5,93.7988,425.5,89.7988" style="stroke: #A80036; stroke-width: 1.0;"/><line style="stroke: #A80036; stroke-width: 1.0;" x1="87.5" x2="427.5" y1="89.7988" y2="89.7988"/><text fill="#000000" font-family="sans-serif" font-size="13" font-weight="bold" lengthAdjust="spacingAndGlyphs" textLength="9" x="94.5" y="85.3672">1</text><text fill="#000000" font-family="sans-serif" font-size="13" lengthAdjust="spacingAndGlyphs" textLength="234" x="107.5" y="85.3672">Create container request --scaleio01</text><polygon fill="#A80036" points="640.5,140.1094,650.5,144.1094,640.5,148.1094,644.5,144.1094" style="stroke: #A80036; stroke-width: 1.0;"/><line style="stroke: #A80036; stroke-width: 1.0;" x1="433.5" x2="646.5" y1="144.1094" y2="144.1094"/><text fill="#000000" font-family="sans-serif" font-size="13" font-weight="bold" lengthAdjust="spacingAndGlyphs" textLength="9" x="440.5" y="139.6777">2</text><text fill="#000000" font-family="sans-serif" font-size="13" lengthAdjust="spacingAndGlyphs" textLength="141" x="453.5" y="139.6777">Create volume request</text><polygon fill="#A80036" points="917.5,194.4199,927.5,198.4199,917.5,202.4199,921.5,198.4199" style="stroke: #A80036; stroke-width: 1.0;"/><line style="stroke: #A80036; stroke-width: 1.0;" x1="652.5" x2="923.5" y1="198.4199" y2="198.4199"/><text fill="#000000" font-family="sans-serif" font-size="13" font-weight="bold" lengthAdjust="spacingAndGlyphs" textLength="9" x="659.5" y="193.9883">3</text><text fill="#000000" font-family="sans-serif" font-size="13" lengthAdjust="spacingAndGlyphs" textLength="221" x="672.5" y="193.9883">Create volume request --scaleio01</text><polygon fill="#A80036" points="1365,248.7305,1375,252.7305,1365,256.7305,1369,252.7305" style="stroke: #A80036; stroke-width: 1.0;"/><line style="stroke: #A80036; stroke-width: 1.0;" x1="929.5" x2="1371" y1="252.7305" y2="252.7305"/><text fill="#000000" font-family="sans-serif" font-size="13" font-weight="bold" lengthAdjust="spacingAndGlyphs" textLength="9" x="936.5" y="248.2988">4</text><text fill="#000000" font-family="sans-serif" font-size="13" lengthAdjust="spacingAndGlyphs" textLength="129" x="949.5" y="248.2988">List services request</text><polygon fill="#A80036" points="940.5,278.041,930.5,282.041,940.5,286.041,936.5,282.041" style="stroke: #A80036; stroke-width: 1.0;"/><line style="stroke: #A80036; stroke-width: 1.0; stroke-dasharray: 2.0,2.0;" x1="934.5" x2="1376" y1="282.041" y2="282.041"/><text fill="#000000" font-family="sans-serif" font-size="13" font-weight="bold" lengthAdjust="spacingAndGlyphs" textLength="9" x="946.5" y="277.6094">5</text><text fill="#000000" font-family="sans-serif" font-size="13" lengthAdjust="spacingAndGlyphs" textLength="139" x="959.5" y="277.6094">List services response</text><polygon fill="#A80036" points="1365,332.3516,1375,336.3516,1365,340.3516,1369,336.3516" style="stroke: #A80036; stroke-width: 1.0;"/><line style="stroke: #A80036; stroke-width: 1.0;" x1="929.5" x2="1371" y1="336.3516" y2="336.3516"/><text fill="#000000" font-family="sans-serif" font-size="13" font-weight="bold" lengthAdjust="spacingAndGlyphs" textLength="9" x="936.5" y="331.9199">6</text><text fill="#000000" font-family="sans-serif" font-size="13" lengthAdjust="spacingAndGlyphs" textLength="160" x="949.5" y="331.9199">Get executor info request</text><polygon fill="#A80036" points="940.5,361.6621,930.5,365.6621,940.5,369.6621,936.5,365.6621" style="stroke: #A80036; stroke-width: 1.0;"/><line style="stroke: #A80036; stroke-width: 1.0; stroke-dasharray: 2.0,2.0;" x1="934.5" x2="1376" y1="365.6621" y2="365.6621"/><text fill="#000000" font-family="sans-serif" font-size="13" font-weight="bold" lengthAdjust="spacingAndGlyphs" textLength="9" x="946.5" y="361.2305">7</text><text fill="#000000" font-family="sans-serif" font-size="13" lengthAdjust="spacingAndGlyphs" textLength="170" x="959.5" y="361.2305">Get executor info response</text><polygon fill="#A80036" points="1365,415.9727,1375,419.9727,1365,423.9727,1369,419.9727" style="stroke: #A80036; stroke-width: 1.0;"/><line style="stroke: #A80036; stroke-width: 1.0;" x1="929.5" x2="1371" y1="419.9727" y2="419.9727"/><text fill="#000000" font-family="sans-serif" font-size="13" font-weight="bold" lengthAdjust="spacingAndGlyphs" textLength="9" x="936.5" y="415.541">8</text><text fill="#000000" font-family="sans-serif" font-size="13" lengthAdjust="spacingAndGlyphs" textLength="216" x="949.5" y="415.541">Download executor binary request</text><polygon fill="#A80036" points="940.5,445.2832,930.5,449.2832,940.5,453.2832,936.5,449.2832" style="stroke: #A80036; stroke-width: 1.0;"/><line style="stroke: #A80036; stroke-width: 1.0; stroke-dasharray: 2.0,2.0;" x1="934.5" x2="1376" y1="449.2832" y2="449.2832"/><text fill="#000000" font-family="sans-serif" font-size="13" font-weight="bold" lengthAdjust="spacingAndGlyphs" textLength="9" x="946.5" y="444.8516">9</text><text fill="#000000" font-family="sans-serif" font-size="13" lengthAdjust="spacingAndGlyphs" textLength="226" x="959.5" y="444.8516">Download executor binary response</text><polygon fill="#A80036" points="1177,542.8701,1187,546.8701,1177,550.8701,1181,546.8701" style="stroke: #A80036; stroke-width: 1.0;"/><line style="stroke: #A80036; stroke-width: 1.0;" x1="929.5" x2="1183" y1="546.8701" y2="546.8701"/><text fill="#000000" font-family="sans-serif" font-size="13" font-weight="bold" lengthAdjust="spacingAndGlyphs" textLength="18" x="936.5" y="542.4385">10</text><text fill="#000000" font-family="sans-serif" font-size="13" lengthAdjust="spacingAndGlyphs" textLength="147" x="958.5" y="542.4385">Get instance ID request</text><polygon fill="#FBFB77" filter="url(#fhcj2z8)" points="630,487.5938,630,588.5938,920,588.5938,920,497.5938,910,487.5938,630,487.5938" style="stroke: #A80036; stroke-width: 1.0;"/><line style="stroke: #A80036; stroke-width: 1.0;" x1="910" x2="910" y1="487.5938" y2="497.5938"/><line style="stroke: #A80036; stroke-width: 1.0;" x1="920" x2="910" y1="497.5938" y2="497.5938"/><text fill="#000000" font-family="sans-serif" font-size="13" lengthAdjust="spacingAndGlyphs" textLength="20" x="636" y="505.1621">10.</text><text fill="#000000" font-family="sans-serif" font-size="13" font-weight="bold" lengthAdjust="spacingAndGlyphs" textLength="158" x="660" y="505.1621">Get instance ID request</text><text fill="#000000" font-family="sans-serif" font-size="13" lengthAdjust="spacingAndGlyphs" textLength="0" x="640" y="520.4727"/><text fill="#000000" font-family="sans-serif" font-size="13" lengthAdjust="spacingAndGlyphs" textLength="222" x="636" y="535.7832">The instance ID is generated by the</text><text fill="#000000" font-family="sans-serif" font-size="13" lengthAdjust="spacingAndGlyphs" textLength="269" x="636" y="551.0938">libStorage executor on the local system --</text><text fill="#000000" font-family="sans-serif" font-size="13" lengthAdjust="spacingAndGlyphs" textLength="235" x="636" y="566.4043">that is the same system on which the</text><text fill="#000000" font-family="sans-serif" font-size="13" lengthAdjust="spacingAndGlyphs" textLength="236" x="636" y="581.7148">libStorage client process is executing</text><polygon fill="#A80036" points="940.5,615.457,930.5,619.457,940.5,623.457,936.5,619.457" style="stroke: #A80036; stroke-width: 1.0;"/><line style="stroke: #A80036; stroke-width: 1.0; stroke-dasharray: 2.0,2.0;" x1="934.5" x2="1188" y1="619.457" y2="619.457"/><text fill="#000000" font-family="sans-serif" font-size="13" font-weight="bold" lengthAdjust="spacingAndGlyphs" textLength="18" x="946.5" y="615.0254">11</text><text fill="#000000" font-family="sans-serif" font-size="13" lengthAdjust="spacingAndGlyphs" textLength="157" x="968.5" y="615.0254">Get instance ID response</text><polygon fill="#A80036" points="1365,705.3887,1375,709.3887,1365,713.3887,1369,709.3887" style="stroke: #A80036; stroke-width: 1.0;"/><line style="stroke: #A80036; stroke-width: 1.0;" x1="929.5" x2="1371" y1="709.3887" y2="709.3887"/><text fill="#000000" font-family="sans-serif" font-size="13" font-weight="bold" lengthAdjust="spacingAndGlyphs" textLength="18" x="936.5" y="704.957">12</text><text fill="#000000" font-family="sans-serif" font-size="13" lengthAdjust="spacingAndGlyphs" textLength="154" x="958.5" y="704.957">Inspect instance request</text><polygon fill="#FBFB77" filter="url(#fhcj2z8)" points="1382,657.7676,1382,743.7676,1593,743.7676,1593,667.7676,1583,657.7676,1382,657.7676" style="stroke: #A80036; stroke-width: 1.0;"/><line style="stroke: #A80036; stroke-width: 1.0;" x1="1583" x2="1583" y1="657.7676" y2="667.7676"/><line style="stroke: #A80036; stroke-width: 1.0;" x1="1593" x2="1583" y1="667.7676" y2="667.7676"/><text fill="#000000" font-family="sans-serif" font-size="13" lengthAdjust="spacingAndGlyphs" textLength="20" x="1388" y="675.3359">12.</text><text fill="#000000" font-family="sans-serif" font-size="13" font-weight="bold" lengthAdjust="spacingAndGlyphs" textLength="166" x="1412" y="675.3359">Inspect instance request</text><text fill="#000000" font-family="sans-serif" font-size="13" lengthAdjust="spacingAndGlyphs" textLength="0" x="1392" y="690.6465"/><text fill="#000000" font-family="sans-serif" font-size="13" lengthAdjust="spacingAndGlyphs" textLength="144" x="1388" y="705.957">The Instance ID is sent</text><text fill="#000000" font-family="sans-serif" font-size="13" lengthAdjust="spacingAndGlyphs" textLength="125" x="1388" y="721.2676">via the HTTP header</text><text fill="#000000" font-family="sans-serif" font-size="13" lengthAdjust="spacingAndGlyphs" textLength="149" x="1388" y="736.5781">"Libstorage-Instanceid"</text><polygon fill="#A80036" points="940.5,805.9414,930.5,809.9414,940.5,813.9414,936.5,809.9414" style="stroke: #A80036; stroke-width: 1.0;"/><line style="stroke: #A80036; stroke-width: 1.0; stroke-dasharray: 2.0,2.0;" x1="934.5" x2="1376" y1="809.9414" y2="809.9414"/><text fill="#000000" font-family="sans-serif" font-size="13" font-weight="bold" lengthAdjust="spacingAndGlyphs" textLength="18" x="946.5" y="805.5098">13</text><text fill="#000000" font-family="sans-serif" font-size="13" lengthAdjust="spacingAndGlyphs" textLength="164" x="968.5" y="805.5098">Inspect instance response</text><polygon fill="#FBFB77" filter="url(#fhcj2z8)" points="1382,758.3203,1382,844.3203,1603,844.3203,1603,768.3203,1593,758.3203,1382,758.3203" style="stroke: #A80036; stroke-width: 1.0;"/><line style="stroke: #A80036; stroke-width: 1.0;" x1="1593" x2="1593" y1="758.3203" y2="768.3203"/><line style="stroke: #A80036; stroke-width: 1.0;" x1="1603" x2="1593" y1="768.3203" y2="768.3203"/><text fill="#000000" font-family="sans-serif" font-size="13" lengthAdjust="spacingAndGlyphs" textLength="20" x="1388" y="775.8887">13.</text><text fill="#000000" font-family="sans-serif" font-size="13" font-weight="bold" lengthAdjust="spacingAndGlyphs" textLength="176" x="1412" y="775.8887">Inspect instance response</text><text fill="#000000" font-family="sans-serif" font-size="13" lengthAdjust="spacingAndGlyphs" textLength="0" x="1392" y="791.1992"/><text fill="#000000" font-family="sans-serif" font-size="13" lengthAdjust="spacingAndGlyphs" textLength="145" x="1388" y="806.5098">The inspected instance</text><text fill="#000000" font-family="sans-serif" font-size="13" lengthAdjust="spacingAndGlyphs" textLength="135" x="1388" y="821.8203">is written to the body</text><text fill="#000000" font-family="sans-serif" font-size="13" lengthAdjust="spacingAndGlyphs" textLength="135" x="1388" y="837.1309">of the HTTP response</text><polygon fill="#A80036" points="1365,946.8047,1375,950.8047,1365,954.8047,1369,950.8047" style="stroke: #A80036; stroke-width: 1.0;"/><line style="stroke: #A80036; stroke-width: 1.0;" x1="929.5" x2="1371" y1="950.8047" y2="950.8047"/><text fill="#000000" font-family="sans-serif" font-size="13" font-weight="bold" lengthAdjust="spacingAndGlyphs" textLength="18" x="936.5" y="946.373">14</text><text fill="#000000" font-family="sans-serif" font-size="13" lengthAdjust="spacingAndGlyphs" textLength="141" x="958.5" y="946.373">Create volume request</text><polygon fill="#FBFB77" filter="url(#fhcj2z8)" points="1382,883.873,1382,1000.873,1620,1000.873,1620,893.873,1610,883.873,1382,883.873" style="stroke: #A80036; stroke-width: 1.0;"/><line style="stroke: #A80036; stroke-width: 1.0;" x1="1610" x2="1610" y1="883.873" y2="893.873"/><line style="stroke: #A80036; stroke-width: 1.0;" x1="1620" x2="1610" y1="893.873" y2="893.873"/><text fill="#000000" font-family="sans-serif" font-size="13" lengthAdjust="spacingAndGlyphs" textLength="20" x="1388" y="901.4414">14.</text><text fill="#000000" font-family="sans-serif" font-size="13" font-weight="bold" lengthAdjust="spacingAndGlyphs" textLength="154" x="1412" y="901.4414">Create volume request</text><text fill="#000000" font-family="sans-serif" font-size="13" lengthAdjust="spacingAndGlyphs" textLength="0" x="1392" y="916.752"/><text fill="#000000" font-family="sans-serif" font-size="13" lengthAdjust="spacingAndGlyphs" textLength="175" x="1388" y="932.0625">All future requests from the</text><text fill="#000000" font-family="sans-serif" font-size="13" lengthAdjust="spacingAndGlyphs" textLength="212" x="1388" y="947.373">libStorage Client to the libStorage</text><text fill="#000000" font-family="sans-serif" font-size="13" lengthAdjust="spacingAndGlyphs" textLength="185" x="1388" y="962.6836">API will include the inspected</text><text fill="#000000" font-family="sans-serif" font-size="13" lengthAdjust="spacingAndGlyphs" textLength="217" x="1388" y="977.9941">instance information in the header</text><text fill="#000000" font-family="sans-serif" font-size="13" lengthAdjust="spacingAndGlyphs" textLength="149" x="1388" y="993.3047">"Libstorage-Instanceid"</text><polygon fill="#A80036" points="940.5,1027.0469,930.5,1031.0469,940.5,1035.0469,936.5,1031.0469" style="stroke: #A80036; stroke-width: 1.0;"/><line style="stroke: #A80036; stroke-width: 1.0; stroke-dasharray: 2.0,2.0;" x1="934.5" x2="1376" y1="1031.0469" y2="1031.0469"/><text fill="#000000" font-family="sans-serif" font-size="13" font-weight="bold" lengthAdjust="spacingAndGlyphs" textLength="18" x="946.5" y="1026.6152">15</text><text fill="#000000" font-family="sans-serif" font-size="13" lengthAdjust="spacingAndGlyphs" textLength="151" x="968.5" y="1026.6152">Create volume response</text><polygon fill="#A80036" points="1365,1081.3574,1375,1085.3574,1365,1089.3574,1369,1085.3574" style="stroke: #A80036; stroke-width: 1.0;"/><line style="stroke: #A80036; stroke-width: 1.0;" x1="929.5" x2="1371" y1="1085.3574" y2="1085.3574"/><text fill="#000000" font-family="sans-serif" font-size="13" font-weight="bold" lengthAdjust="spacingAndGlyphs" textLength="18" x="936.5" y="1080.9258">16</text><text fill="#000000" font-family="sans-serif" font-size="13" lengthAdjust="spacingAndGlyphs" textLength="142" x="958.5" y="1080.9258">Attach volume request</text><polygon fill="#A80036" points="940.5,1110.668,930.5,1114.668,940.5,1118.668,936.5,1114.668" style="stroke: #A80036; stroke-width: 1.0;"/><line style="stroke: #A80036; stroke-width: 1.0; stroke-dasharray: 2.0,2.0;" x1="934.5" x2="1376" y1="1114.668" y2="1114.668"/><text fill="#000000" font-family="sans-serif" font-size="13" font-weight="bold" lengthAdjust="spacingAndGlyphs" textLength="18" x="946.5" y="1110.2363">17</text><text fill="#000000" font-family="sans-serif" font-size="13" lengthAdjust="spacingAndGlyphs" textLength="152" x="968.5" y="1110.2363">Attach volume response</text><line style="stroke: #A80036; stroke-width: 1.0;" x1="929.5" x2="971.5" y1="1169.2891" y2="1169.2891"/><line style="stroke: #A80036; stroke-width: 1.0;" x1="971.5" x2="971.5" y1="1169.2891" y2="1182.2891"/><line style="stroke: #A80036; stroke-width: 1.0;" x1="930.5" x2="971.5" y1="1182.2891" y2="1182.2891"/><polygon fill="#A80036" points="940.5,1178.2891,930.5,1182.2891,940.5,1186.2891,936.5,1182.2891" style="stroke: #A80036; stroke-width: 1.0;"/><text fill="#000000" font-family="sans-serif" font-size="13" font-weight="bold" lengthAdjust="spacingAndGlyphs" textLength="18" x="936.5" y="1164.5469">18</text><text fill="#000000" font-family="sans-serif" font-size="13" lengthAdjust="spacingAndGlyphs" textLength="141" x="958.5" y="1164.5469">Mount volume request</text><line style="stroke: #A80036; stroke-width: 1.0; stroke-dasharray: 2.0,2.0;" x1="929.5" x2="971.5" y1="1211.5996" y2="1211.5996"/><line style="stroke: #A80036; stroke-width: 1.0; stroke-dasharray: 2.0,2.0;" x1="971.5" x2="971.5" y1="1211.5996" y2="1224.5996"/><line style="stroke: #A80036; stroke-width: 1.0; stroke-dasharray: 2.0,2.0;" x1="930.5" x2="971.5" y1="1224.5996" y2="1224.5996"/><polygon fill="#A80036" points="940.5,1220.5996,930.5,1224.5996,940.5,1228.5996,936.5,1224.5996" style="stroke: #A80036; stroke-width: 1.0;"/><text fill="#000000" font-family="sans-serif" font-size="13" font-weight="bold" lengthAdjust="spacingAndGlyphs" textLength="18" x="936.5" y="1206.8574">19</text><text fill="#000000" font-family="sans-serif" font-size="13" lengthAdjust="spacingAndGlyphs" textLength="151" x="958.5" y="1206.8574">Mount volume response</text><polygon fill="#A80036" points="1177,1274.5996,1187,1278.5996,1177,1282.5996,1181,1278.5996" style="stroke: #A80036; stroke-width: 1.0;"/><line style="stroke: #A80036; stroke-width: 1.0;" x1="929.5" x2="1183" y1="1278.5996" y2="1278.5996"/><text fill="#000000" font-family="sans-serif" font-size="13" font-weight="bold" lengthAdjust="spacingAndGlyphs" textLength="18" x="936.5" y="1274.168">20</text><text fill="#000000" font-family="sans-serif" font-size="13" lengthAdjust="spacingAndGlyphs" textLength="150" x="958.5" y="1274.168">Wait for volume request</text><polygon fill="#A80036" points="940.5,1303.9102,930.5,1307.9102,940.5,1311.9102,936.5,1307.9102" style="stroke: #A80036; stroke-width: 1.0;"/><line style="stroke: #A80036; stroke-width: 1.0; stroke-dasharray: 2.0,2.0;" x1="934.5" x2="1188" y1="1307.9102" y2="1307.9102"/><text fill="#000000" font-family="sans-serif" font-size="13" font-weight="bold" lengthAdjust="spacingAndGlyphs" textLength="18" x="946.5" y="1303.4785">21</text><text fill="#000000" font-family="sans-serif" font-size="13" lengthAdjust="spacingAndGlyphs" textLength="160" x="968.5" y="1303.4785">Wait for volume response</text><line style="stroke: #A80036; stroke-width: 1.0;" x1="929.5" x2="971.5" y1="1362.5313" y2="1362.5313"/><line style="stroke: #A80036; stroke-width: 1.0;" x1="971.5" x2="971.5" y1="1362.5313" y2="1375.5313"/><line style="stroke: #A80036; stroke-width: 1.0;" x1="930.5" x2="971.5" y1="1375.5313" y2="1375.5313"/><polygon fill="#A80036" points="940.5,1371.5313,930.5,1375.5313,940.5,1379.5313,936.5,1375.5313" style="stroke: #A80036; stroke-width: 1.0;"/><text fill="#000000" font-family="sans-serif" font-size="13" font-weight="bold" lengthAdjust="spacingAndGlyphs" textLength="18" x="936.5" y="1357.7891">22</text><text fill="#000000" font-family="sans-serif" font-size="13" lengthAdjust="spacingAndGlyphs" textLength="145" x="958.5" y="1357.7891">Format volume request</text><line style="stroke: #A80036; stroke-width: 1.0; stroke-dasharray: 2.0,2.0;" x1="929.5" x2="971.5" y1="1404.8418" y2="1404.8418"/><line style="stroke: #A80036; stroke-width: 1.0; stroke-dasharray: 2.0,2.0;" x1="971.5" x2="971.5" y1="1404.8418" y2="1417.8418"/><line style="stroke: #A80036; stroke-width: 1.0; stroke-dasharray: 2.0,2.0;" x1="930.5" x2="971.5" y1="1417.8418" y2="1417.8418"/><polygon fill="#A80036" points="940.5,1413.8418,930.5,1417.8418,940.5,1421.8418,936.5,1417.8418" style="stroke: #A80036; stroke-width: 1.0;"/><text fill="#000000" font-family="sans-serif" font-size="13" font-weight="bold" lengthAdjust="spacingAndGlyphs" textLength="18" x="936.5" y="1400.0996">23</text><text fill="#000000" font-family="sans-serif" font-size="13" lengthAdjust="spacingAndGlyphs" textLength="155" x="958.5" y="1400.0996">Format volume response</text><polygon fill="#A80036" points="663.5,1467.8418,653.5,1471.8418,663.5,1475.8418,659.5,1471.8418" style="stroke: #A80036; stroke-width: 1.0;"/><line style="stroke: #A80036; stroke-width: 1.0; stroke-dasharray: 2.0,2.0;" x1="657.5" x2="928.5" y1="1471.8418" y2="1471.8418"/><text fill="#000000" font-family="sans-serif" font-size="13" font-weight="bold" lengthAdjust="spacingAndGlyphs" textLength="18" x="669.5" y="1467.4102">24</text><text fill="#000000" font-family="sans-serif" font-size="13" lengthAdjust="spacingAndGlyphs" textLength="231" x="691.5" y="1467.4102">Create volume response --scaleio01</text><polygon fill="#A80036" points="444.5,1522.1523,434.5,1526.1523,444.5,1530.1523,440.5,1526.1523" style="stroke: #A80036; stroke-width: 1.0;"/><line style="stroke: #A80036; stroke-width: 1.0; stroke-dasharray: 2.0,2.0;" x1="438.5" x2="651.5" y1="1526.1523" y2="1526.1523"/><text fill="#000000" font-family="sans-serif" font-size="13" font-weight="bold" lengthAdjust="spacingAndGlyphs" textLength="18" x="450.5" y="1521.7207">25</text><text fill="#000000" font-family="sans-serif" font-size="13" lengthAdjust="spacingAndGlyphs" textLength="141" x="472.5" y="1521.7207">Create volume request</text><polygon fill="#A80036" points="98.5,1576.4629,88.5,1580.4629,98.5,1584.4629,94.5,1580.4629" style="stroke: #A80036; stroke-width: 1.0;"/><line style="stroke: #A80036; stroke-width: 1.0; stroke-dasharray: 2.0,2.0;" x1="92.5" x2="432.5" y1="1580.4629" y2="1580.4629"/><text fill="#000000" font-family="sans-serif" font-size="13" font-weight="bold" lengthAdjust="spacingAndGlyphs" textLength="18" x="104.5" y="1576.0313">26</text><text fill="#000000" font-family="sans-serif" font-size="13" lengthAdjust="spacingAndGlyphs" textLength="234" x="126.5" y="1576.0313">Create container request --scaleio01</text></g></svg>